<mxfile host="app.diagrams.net" modified="2024-01-29T03:04:16.559Z" agent="Mozilla/5.0 (Windows NT 10.0; Win64; x64) AppleWebKit/537.36 (KHTML, like Gecko) Chrome/113.0.0.0 Safari/537.36" version="22.1.21" etag="0OJyP4i2HVyxYr64ukq_" type="github">
  <diagram name="第 1 页" id="6QbJXOyQGMiuwbul18Ak">
    <mxGraphModel>
      <root>
        <mxCell id="0" />
        <mxCell id="1" parent="0" />
      </root>
    </mxGraphModel>
  </diagram>
</mxfile>
